<?xml version="1.0" encoding="UTF-8"?>
<svg width="1763px" height="342px" viewBox="0 0 1763 342" version="1.1" xmlns="http://www.w3.org/2000/svg" xmlns:xlink="http://www.w3.org/1999/xlink">
    <!-- Generator: Sketch 54.1 (76490) - https://sketchapp.com -->
    <title>Group 2</title>
    <desc>Created with Sketch.</desc>
    <defs>
        <path d="M78.2019418,151.383452 C77.6393709,152.038122 77.0326261,152.666909 76.3818759,153.265754 C76.3797117,153.267745 76.3775471,153.269736 76.3753821,153.271727 L76.3563752,153.265231 C67.354588,161.542389 53.3479789,160.957788 45.0672354,151.959298 L42.894265,149.599426 L41.2367239,147.823666 C41.0312536,147.600386 40.8306436,147.374359 40.6348884,147.145716 L5.84087238,109.358993 C-2.44220427,100.357969 -1.86019259,86.3464361 7.14083185,78.0633595 C7.14299603,78.0613679 7.14516061,78.0593768 7.14732559,78.0573861 L7.1532965,78.0638797 L7.16633255,78.0638817 C16.1681197,69.7867236 30.1747288,70.3713256 38.4554723,79.3698146 L57.0195565,99.530635 L158.147301,6.5670772 C168.250735,-2.7230474 183.971486,-2.06690134 193.265635,8.03283137 L193.272924,8.02612416 L195.17058,10.0736413 C204.467348,20.1762197 203.814109,35.9024967 193.711531,45.1992642 C193.709102,45.2014994 193.706672,45.2037343 193.704242,45.2059686 L78.2600036,151.33023 C78.2406702,151.348007 78.2213162,151.365748 78.2019418,151.383452 Z" id="path-1"></path>
    </defs>
    <g id="Finalisation" stroke="none" stroke-width="1" fill="none" fill-rule="evenodd">
        <g id="Artboard-Copy-14" transform="translate(-691.000000, -781.000000)">
            <g id="Group-2" transform="translate(685.500000, 772.250000)">
                <g id="Group" transform="translate(437.500000, 107.000000)" fill="#068466" fill-rule="nonzero" stroke="#058466" stroke-width="2">
                    <path d="M66.7125,137.1 C57.845789,137.1 50.0292005,135.175019 43.2625,131.325 C36.4957995,127.474981 31.1583529,122.108368 27.25,115.225 C23.3416471,108.341632 21.3875,100.466711 21.3875,91.6 C21.3875,82.733289 23.3416471,74.8583677 27.25,67.975 C31.1583529,61.0916322 36.4957995,55.7250192 43.2625,51.875 C50.0292005,48.0249807 57.845789,46.1 66.7125,46.1 C77.7958888,46.1 87.1291288,48.9874711 94.7125,54.7625 C102.295871,60.5375289 107.13749,68.4999493 109.2375,78.65 L85.6125,78.65 C84.4458275,74.449979 82.1416839,71.1541786 78.7,68.7625 C75.2583161,66.3708214 71.20419,65.175 66.5375,65.175 C60.3541357,65.175 55.1041882,67.50831 50.7875,72.175 C46.4708117,76.84169 44.3125,83.3166252 44.3125,91.6 C44.3125,99.8833748 46.4708117,106.35831 50.7875,111.025 C55.1041882,115.69169 60.3541357,118.025 66.5375,118.025 C71.20419,118.025 75.2583161,116.858345 78.7,114.525 C82.1416839,112.191655 84.4458275,108.866688 85.6125,104.55 L109.2375,104.55 C107.13749,114.350049 102.295871,122.22497 94.7125,128.175 C87.1291288,134.12503 77.7958888,137.1 66.7125,137.1 Z M122.9375,135 L122.9375,9 L145.3375,9 L145.3375,61.5 C148.254181,56.7166427 152.191642,52.9541804 157.15,50.2125 C162.108358,47.4708196 167.795801,46.1 174.2125,46.1 C184.945887,46.1 193.258304,49.4832995 199.15,56.25 C205.041696,63.0167005 207.9875,72.933268 207.9875,86 L207.9875,135 L185.7625,135 L185.7625,88.1 C185.7625,80.633296 184.275015,74.9166865 181.3,70.95 C178.324985,66.9833135 173.629199,65 167.2125,65 C160.912468,65 155.691687,67.2166445 151.55,71.65 C147.408313,76.0833555 145.3375,82.266627 145.3375,90.2 L145.3375,135 L122.9375,135 Z M265.2625,137.1 C256.512456,137.1 248.754201,135.233352 241.9875,131.5 C235.2208,127.766648 229.912519,122.5167 226.0625,115.75 C222.212481,108.983299 220.2875,101.166711 220.2875,92.3 C220.2875,83.3166217 222.183314,75.325035 225.975,68.325 C229.766686,61.324965 235.016633,55.8708529 241.725,51.9625 C248.433367,48.0541471 256.337455,46.1 265.4375,46.1 C273.954209,46.1 281.479134,47.966648 288.0125,51.7 C294.545866,55.433352 299.649982,60.5374676 303.325,67.0125 C307.000018,73.4875324 308.8375,80.691627 308.8375,88.625 C308.8375,89.9083397 308.808334,91.249993 308.75,92.65 C308.691666,94.050007 308.604167,95.5083257 308.4875,97.025 L242.5125,97.025 C242.979169,103.7917 245.341645,109.099981 249.6,112.95 C253.858355,116.800019 259.020803,118.725 265.0875,118.725 C269.637523,118.725 273.458318,117.704177 276.55,115.6625 C279.641682,113.620823 281.945826,110.966683 283.4625,107.7 L306.2125,107.7 C304.579159,113.183361 301.866686,118.170811 298.075,122.6625 C294.283314,127.154189 289.616694,130.683321 284.075,133.25 C278.533306,135.816679 272.262535,137.1 265.2625,137.1 Z M265.4375,64.3 C259.954139,64.3 255.112521,65.8458179 250.9125,68.9375 C246.712479,72.0291821 244.029173,76.7249685 242.8625,83.025 L286.0875,83.025 C285.737498,77.3083047 283.637519,72.7583502 279.7875,69.375 C275.937481,65.9916497 271.154195,64.3 265.4375,64.3 Z M364.0125,137.1 C355.145789,137.1 347.329201,135.175019 340.5625,131.325 C333.7958,127.474981 328.458353,122.108368 324.55,115.225 C320.641647,108.341632 318.6875,100.466711 318.6875,91.6 C318.6875,82.733289 320.641647,74.8583677 324.55,67.975 C328.458353,61.0916322 333.7958,55.7250192 340.5625,51.875 C347.329201,48.0249807 355.145789,46.1 364.0125,46.1 C375.095889,46.1 384.429129,48.9874711 392.0125,54.7625 C399.595871,60.5375289 404.43749,68.4999493 406.5375,78.65 L382.9125,78.65 C381.745828,74.449979 379.441684,71.1541786 376,68.7625 C372.558316,66.3708214 368.50419,65.175 363.8375,65.175 C357.654136,65.175 352.404188,67.50831 348.0875,72.175 C343.770812,76.84169 341.6125,83.3166252 341.6125,91.6 C341.6125,99.8833748 343.770812,106.35831 348.0875,111.025 C352.404188,115.69169 357.654136,118.025 363.8375,118.025 C368.50419,118.025 372.558316,116.858345 376,114.525 C379.441684,112.191655 381.745828,108.866688 382.9125,104.55 L406.5375,104.55 C404.43749,114.350049 399.595871,122.22497 392.0125,128.175 C384.429129,134.12503 375.095889,137.1 364.0125,137.1 Z M420.2375,135 L420.2375,9 L442.6375,9 L442.6375,83.375 L473.4375,48.2 L500.0375,48.2 L464.5125,87.75 L505.8125,135 L477.8125,135 L442.6375,91.425 L442.6375,135 L420.2375,135 Z M578.7125,137.1 C571.245796,137.1 565.120857,135.904179 560.3375,133.5125 C555.554143,131.120821 551.995845,127.941687 549.6625,123.975 C547.329155,120.008313 546.1625,115.633357 546.1625,110.85 C546.1625,102.79996 549.312469,96.2666917 555.6125,91.25 C561.912532,86.2333082 571.362437,83.725 583.9625,83.725 L606.0125,83.725 L606.0125,81.625 C606.0125,75.6749702 604.32085,71.300014 600.9375,68.5 C597.55415,65.699986 593.354192,64.3 588.3375,64.3 C583.787477,64.3 579.82085,65.3791559 576.4375,67.5375 C573.05415,69.6958441 570.954171,72.874979 570.1375,77.075 L548.2625,77.075 C548.845836,70.7749685 550.974982,65.29169 554.65,60.625 C558.325018,55.95831 563.079138,52.3708459 568.9125,49.8625 C574.745863,47.3541541 581.279131,46.1 588.5125,46.1 C600.879229,46.1 610.620798,49.1916357 617.7375,55.375 C624.854202,61.5583642 628.4125,70.3082767 628.4125,81.625 L628.4125,135 L609.3375,135 L607.2375,121 C604.67082,125.66669 601.083356,129.516651 596.475,132.55 C591.866644,135.583348 585.94587,137.1 578.7125,137.1 Z M583.7875,119.6 C590.204199,119.6 595.191649,117.500021 598.75,113.3 C602.308351,109.099979 604.554162,103.908364 605.4875,97.725 L586.4125,97.725 C580.46247,97.725 576.20418,98.8041559 573.6375,100.9625 C571.07082,103.120844 569.7875,105.774984 569.7875,108.925 C569.7875,112.30835 571.07082,114.933324 573.6375,116.8 C576.20418,118.666676 579.587479,119.6 583.7875,119.6 Z M643.5125,135 L643.5125,48.2 L663.2875,48.2 L665.0375,62.9 C667.720847,57.766641 671.599975,53.6833485 676.675,50.65 C681.750025,47.6166515 687.729132,46.1 694.6125,46.1 C705.345887,46.1 713.68747,49.4832995 719.6375,56.25 C725.58753,63.0167005 728.5625,72.933268 728.5625,86 L728.5625,135 L706.1625,135 L706.1625,88.1 C706.1625,80.633296 704.645849,74.9166865 701.6125,70.95 C698.579152,66.9833135 693.854199,65 687.4375,65 C681.137469,65 675.97502,67.2166445 671.95,71.65 C667.92498,76.0833555 665.9125,82.266627 665.9125,90.2 L665.9125,135 L643.5125,135 Z M791.1375,34.725 C787.054146,34.725 783.700013,33.5000122 781.075,31.05 C778.449987,28.5999877 777.1375,25.508352 777.1375,21.775 C777.1375,18.041648 778.449987,14.9791786 781.075,12.5875 C783.700013,10.1958214 787.054146,9 791.1375,9 C795.220854,9 798.574987,10.1958214 801.2,12.5875 C803.825013,14.9791786 805.1375,18.041648 805.1375,21.775 C805.1375,25.508352 803.825013,28.5999877 801.2,31.05 C798.574987,33.5000122 795.220854,34.725 791.1375,34.725 Z M779.9375,135 L779.9375,48.2 L802.3375,48.2 L802.3375,135 L779.9375,135 Z M819.5375,135 L819.5375,48.2 L839.3125,48.2 L841.0625,62.9 C843.745847,57.766641 847.624975,53.6833485 852.7,50.65 C857.775025,47.6166515 863.754132,46.1 870.6375,46.1 C881.370887,46.1 889.71247,49.4832995 895.6625,56.25 C901.61253,63.0167005 904.5875,72.933268 904.5875,86 L904.5875,135 L882.1875,135 L882.1875,88.1 C882.1875,80.633296 880.670848,74.9166865 877.6375,70.95 C874.604152,66.9833135 869.879199,65 863.4625,65 C857.162468,65 852.00002,67.2166445 847.975,71.65 C843.94998,76.0833555 841.9375,82.266627 841.9375,90.2 L841.9375,135 L819.5375,135 Z M942.2625,135 L910.4125,48.2 L933.8625,48.2 L955.9125,113.825 L977.9625,48.2 L1001.4125,48.2 L969.3875,135 L942.2625,135 Z M1046.7875,137.1 C1038.38746,137.1 1030.83337,135.175019 1024.125,131.325 C1017.41663,127.474981 1012.10835,122.137534 1008.2,115.3125 C1004.29165,108.487466 1002.3375,100.583378 1002.3375,91.6 C1002.3375,82.6166218 1004.32081,74.7125341 1008.2875,67.8875 C1012.25419,61.0624659 1017.59163,55.7250192 1024.3,51.875 C1031.00837,48.0249807 1038.56246,46.1 1046.9625,46.1 C1055.24587,46.1 1062.74163,48.0249807 1069.45,51.875 C1076.15837,55.7250192 1081.46665,61.0624659 1085.375,67.8875 C1089.28335,74.7125341 1091.2375,82.6166218 1091.2375,91.6 C1091.2375,100.583378 1089.28335,108.487466 1085.375,115.3125 C1081.46665,122.137534 1076.1292,127.474981 1069.3625,131.325 C1062.5958,135.175019 1055.07087,137.1 1046.7875,137.1 Z M1046.7875,117.675 C1052.62086,117.675 1057.69581,115.487522 1062.0125,111.1125 C1066.32919,106.737478 1068.4875,100.233376 1068.4875,91.6 C1068.4875,82.9666235 1066.32919,76.4625219 1062.0125,72.0875 C1057.69581,67.7124781 1052.6792,65.525 1046.9625,65.525 C1041.01247,65.525 1035.90835,67.7124781 1031.65,72.0875 C1027.39165,76.4625219 1025.2625,82.9666235 1025.2625,91.6 C1025.2625,100.233376 1027.39165,106.737478 1031.65,111.1125 C1035.90835,115.487522 1040.95414,117.675 1046.7875,117.675 Z M1117.0125,34.725 C1112.92915,34.725 1109.57501,33.5000122 1106.95,31.05 C1104.32499,28.5999877 1103.0125,25.508352 1103.0125,21.775 C1103.0125,18.041648 1104.32499,14.9791786 1106.95,12.5875 C1109.57501,10.1958214 1112.92915,9 1117.0125,9 C1121.09585,9 1124.44999,10.1958214 1127.075,12.5875 C1129.70001,14.9791786 1131.0125,18.041648 1131.0125,21.775 C1131.0125,25.508352 1129.70001,28.5999877 1127.075,31.05 C1124.44999,33.5000122 1121.09585,34.725 1117.0125,34.725 Z M1105.8125,135 L1105.8125,48.2 L1128.2125,48.2 L1128.2125,135 L1105.8125,135 Z M1187.9375,137.1 C1179.07079,137.1 1171.2542,135.175019 1164.4875,131.325 C1157.7208,127.474981 1152.38335,122.108368 1148.475,115.225 C1144.56665,108.341632 1142.6125,100.466711 1142.6125,91.6 C1142.6125,82.733289 1144.56665,74.8583677 1148.475,67.975 C1152.38335,61.0916322 1157.7208,55.7250192 1164.4875,51.875 C1171.2542,48.0249807 1179.07079,46.1 1187.9375,46.1 C1199.02089,46.1 1208.35413,48.9874711 1215.9375,54.7625 C1223.52087,60.5375289 1228.36249,68.4999493 1230.4625,78.65 L1206.8375,78.65 C1205.67083,74.449979 1203.36668,71.1541786 1199.925,68.7625 C1196.48332,66.3708214 1192.42919,65.175 1187.7625,65.175 C1181.57914,65.175 1176.32919,67.50831 1172.0125,72.175 C1167.69581,76.84169 1165.5375,83.3166252 1165.5375,91.6 C1165.5375,99.8833748 1167.69581,106.35831 1172.0125,111.025 C1176.32919,115.69169 1181.57914,118.025 1187.7625,118.025 C1192.42919,118.025 1196.48332,116.858345 1199.925,114.525 C1203.36668,112.191655 1205.67083,108.866688 1206.8375,104.55 L1230.4625,104.55 C1228.36249,114.350049 1223.52087,122.22497 1215.9375,128.175 C1208.35413,134.12503 1199.02089,137.1 1187.9375,137.1 Z M1286.3375,137.1 C1277.58746,137.1 1269.8292,135.233352 1263.0625,131.5 C1256.2958,127.766648 1250.98752,122.5167 1247.1375,115.75 C1243.28748,108.983299 1241.3625,101.166711 1241.3625,92.3 C1241.3625,83.3166217 1243.25831,75.325035 1247.05,68.325 C1250.84169,61.324965 1256.09163,55.8708529 1262.8,51.9625 C1269.50837,48.0541471 1277.41245,46.1 1286.5125,46.1 C1295.02921,46.1 1302.55413,47.966648 1309.0875,51.7 C1315.62087,55.433352 1320.72498,60.5374676 1324.4,67.0125 C1328.07502,73.4875324 1329.9125,80.691627 1329.9125,88.625 C1329.9125,89.9083397 1329.88333,91.249993 1329.825,92.65 C1329.76667,94.050007 1329.67917,95.5083257 1329.5625,97.025 L1263.5875,97.025 C1264.05417,103.7917 1266.41665,109.099981 1270.675,112.95 C1274.93335,116.800019 1280.0958,118.725 1286.1625,118.725 C1290.71252,118.725 1294.53332,117.704177 1297.625,115.6625 C1300.71668,113.620823 1303.02083,110.966683 1304.5375,107.7 L1327.2875,107.7 C1325.65416,113.183361 1322.94169,118.170811 1319.15,122.6625 C1315.35831,127.154189 1310.69169,130.683321 1305.15,133.25 C1299.60831,135.816679 1293.33753,137.1 1286.3375,137.1 Z M1286.5125,64.3 C1281.02914,64.3 1276.18752,65.8458179 1271.9875,68.9375 C1267.78748,72.0291821 1265.10417,76.7249685 1263.9375,83.025 L1307.1625,83.025 C1306.8125,77.3083047 1304.71252,72.7583502 1300.8625,69.375 C1297.01248,65.9916497 1292.2292,64.3 1286.5125,64.3 Z" id="checkaninvoice"></path>
                </g>
                <g id="Artboard-Copy-10">
                    <g id="Group-Copy-4" transform="translate(35.859375, 38.437500)">
                        <g id="Group-Copy-2">
                            <g id="Group-Copy">
                                <path d="" id="Path-3" stroke="#979797" stroke-width="0.5"></path>
                                <g id="AI-Draft-01">
                                    <path d="M217.499039,258.447656 C154.506408,299.977906 69.9302996,284.22568 26.1275467,222.804883 C-17.6752063,161.384086 -4.99253722,76.3263864 54.824792,30.3436854 C114.642121,-15.6390155 200.137608,-6.05270195 248.276575,52.0347656" id="Path" stroke="#058466" stroke-width="60.0855469"></path>
                                    <path d="M199.15069,234.537891 L201.524686,232.966406 C203.705012,231.532586 206.634786,232.131511 208.076914,234.305859 L236.005655,276.588281 C237.439028,278.764458 236.839569,281.689782 234.665666,283.127344 L231.626952,285.13125" id="Path" fill="#058466" fill-rule="nonzero"></path>
                                    <path d="M269.807388,250.664505 L268.541257,252.046145 C267.391188,253.301223 264.880028,252.879348 262.97028,251.128567 L225.724925,216.798489 C223.815178,215.037161 223.192663,212.579739 224.353283,211.324661 L225.946498,209.616067 L243.292494,185.358255 L244.273745,183.322708 C245.160037,181.477005 247.808361,180.88638 250.140152,182.014895 L295.72087,204.026223 C298.052661,205.154739 299.234384,207.591067 298.348092,209.43677 L297.092512,212.031301 L297.55676,211.071536 L296.332833,213.602786 C289.161241,227.172344 280.177367,239.704293 269.628019,250.854348 L225.946498,209.616067 C233.177808,201.97482 239.265498,193.328285 244.020519,183.944973 L296.997552,210.828958" id="Path" fill="#058466" fill-rule="nonzero"></path>
                                </g>
                                <g id="Path-2" transform="translate(88.545804, 35.971629)">
                                    <mask id="mask-2" fill="white">
                                        <use xlink:href="#path-1"></use>
                                    </mask>
                                    <use id="Mask" fill="#058466" fill-rule="nonzero" xlink:href="#path-1"></use>
                                    <path d="M142.14142,102.128821 L121.485479,131.983892 C101.005918,129.273871 93.4184348,130.004094 82.916535,121.910266 C76.7712915,117.174118 70.6160875,110.072262 65.4919914,102.93001 C63.1671189,99.6894732 60.898411,96.5392342 59.2129361,93.4249283 C59.0758149,93.1715652 58.8642537,92.8195156 58.7323232,92.5683763 C56.678229,88.6582603 55.339002,85.1300914 54.8328648,82.1786031 C54.1479348,78.1845018 51.3811374,84.8618491 52.475479,80.2988652 C61.9361266,95.7248863 84.7343548,116.606059 109.59131,117.434509 C120.742914,117.806177 127.68628,112.230939 142.14142,102.128821 Z" fill-opacity="0.2" fill="#2A2A2A" fill-rule="nonzero" mask="url(#mask-2)" transform="translate(97.181888, 106.141379) rotate(-10.000000) translate(-97.181888, -106.141379) "></path>
                                </g>
                                <path d="M282.683743,45.1754011 C267.937421,28.0955722 256.548304,17.5554938 248.51639,13.555166 C240.484476,9.55483823 246.905647,19.8306283 267.779902,44.3825362 L282.683743,45.1754011 Z" id="Path-4" fill="#058466"></path>
                                <path d="M224.025805,211.826286 C230.771983,202.410637 237.521296,192.909444 244.273745,183.322708 L248.379099,206.326707 L224.025805,211.826286" id="Path-5" fill="#058466"></path>
                            </g>
                        </g>
                    </g>
                </g>
            </g>
        </g>
    </g>
</svg>