<?xml version="1.0" encoding="utf-8"?>
<!-- Generator: Adobe Illustrator 24.0.3, SVG Export Plug-In . SVG Version: 6.00 Build 0)  -->
<svg version="1.1" id="Layer_1" xmlns="http://www.w3.org/2000/svg" xmlns:xlink="http://www.w3.org/1999/xlink" x="0px" y="0px"
	 viewBox="0 0 512 512" style="enable-background:new 0 0 512 512;" xml:space="preserve">
<style type="text/css">
	.st0{fill:#FF9700;}
</style>
<path class="st0" d="M366,326c5.5,0,10-4.5,10-10s-4.5-10-10-10s-10,4.5-10,10S360.5,326,366,326z"/>
<path class="st0" d="M97.9,320.2c6.2,26.3,16,51.7,29.1,75.3c13.1,23.6,29.5,45.3,48.6,64.4l0.3,0.3V502c0,5.5,4.5,10,10,10h180
	c5.5,0,10-4.5,10-10v-43c26-40,40-86.9,40-135.1V246c0-22.1-17.9-40-40-40c-8.2,0-15.9,2.5-22.3,6.8c-5.5-15.6-20.3-26.8-37.7-26.8
	c-8.2,0-15.9,2.5-22.3,6.8c-5.5-15.6-20.3-26.8-37.7-26.8c-7.1,0-14,1.9-20,5.4V80c0-22.1-17.9-40-40-40c-22.1,0-40,17.9-40,40v144
	l-27.3,18.2C103.3,259.1,90.9,290.5,97.9,320.2z M139.8,258.8L156,248v68c0,5.5,4.5,10,10,10s10-4.5,10-10c0-7.3,0-230,0-236
	c0-11,9-20,20-20c11,0,20,9,20,20v196c0,5.5,4.5,10,10,10s10-4.5,10-10v-70c0-11,9-20,20-20c11,0,20,9,20,20v70c0,5.5,4.5,10,10,10
	s10-4.5,10-10v-50c0-11,9-20,20-20s20,9,20,20v50c0,5.5,4.5,10,10,10s10-4.5,10-10v-30c0-11,9-20,20-20s20,9,20,20v77.9
	c0,44.8-13.2,88.9-38.3,126.6c-1.1,1.6-1.7,3.6-1.7,5.5v36H196v-36c0-2.7-1.1-5.2-2.9-7.1c-2.1-2.4-27.1-24.7-48.6-63.2
	c-12.2-22-21.4-45.6-27.2-70.1C112.3,294,121.3,271.2,139.8,258.8z"/>
<path class="st0" d="M327.2,442.1c4.6,3.1,10.8,1.8,13.9-2.8c16.6-24.9,27.4-52.4,32.2-81.8c0.9-5.4-2.8-10.6-8.3-11.5
	c-5.5-0.9-10.6,2.8-11.5,8.3c-4.3,26.6-14.1,51.5-29.1,74C321.4,432.9,322.6,439.1,327.2,442.1z"/>
</svg>
