<?xml version="1.0" encoding="utf-8"?>
<!-- Generator: Adobe Illustrator 24.0.1, SVG Export Plug-In . SVG Version: 6.00 Build 0)  -->
<svg version="1.1" id="Capa_1" xmlns="http://www.w3.org/2000/svg" xmlns:xlink="http://www.w3.org/1999/xlink" x="0px" y="0px"
	 viewBox="0 0 426.7 426.7" style="enable-background:new 0 0 426.7 426.7;" xml:space="preserve">
<style type="text/css">
	.st0{fill:#FBBC04;}
</style>
<g>
	<g>
		<g>
			<path class="st0" d="M138.7,192c17.7,0,32-14.3,32-32s-14.3-32-32-32s-32,14.3-32,32S121,192,138.7,192z"/>
			<path class="st0" d="M288,192c17.7,0,32-14.3,32-32s-14.3-32-32-32s-32,14.3-32,32S270.3,192,288,192z"/>
			<path class="st0" d="M213.1,0C95.4,0,0,95.6,0,213.3s95.4,213.3,213.1,213.3c118,0,213.5-95.6,213.5-213.3S331.1,0,213.1,0z
				 M213.3,384C119,384,42.7,307.6,42.7,213.3S119,42.7,213.3,42.7S384,119,384,213.3S307.6,384,213.3,384z"/>
			<path class="st0" d="M213.3,256c-49.7,0-92.2,31-109.2,74.7h35.7c14.8-25.4,42-42.7,73.5-42.7s58.7,17.3,73.5,42.7h35.7
				C305.5,287,263,256,213.3,256z"/>
		</g>
	</g>
</g>
</svg>
